<?xml version="1.0" encoding="UTF-8"?>
<svg width="32px" height="60px" viewBox="0 0 32 60" version="1.1" xmlns="http://www.w3.org/2000/svg" xmlns:xlink="http://www.w3.org/1999/xlink">
    <title>8E0D468A-F966-40AB-A529-7390E13E3BDB</title>
    <g id="Design" stroke="none" stroke-width="1" fill="none" fill-rule="evenodd">
        <g id="Home" transform="translate(-58.000000, -25.000000)" fill="#FFFFFF" fill-rule="nonzero">
            <g id="Navigation" transform="translate(57.500000, 0.000000)">
                <g id="Menu" transform="translate(0.000000, 24.250000)">
                    <g id="Group" transform="translate(0.500000, 0.750000)">
                        <path d="M1.03030303,9.6969697 C1.6969697,10.3636364 2.36363636,11.030303 3.03030303,11.6969697 C3.6969697,11.030303 4.36363636,10.3636364 5.03030303,9.6969697 C4.36363636,9.03030303 3.6969697,8.36363636 3.03030303,7.6969697 C2.36363636,8.3030303 1.6969697,9.03030303 1.03030303,9.6969697 Z" id="Path"></path>
                        <path d="M20.6060606,45.7575758 C21.2727273,46.4242424 21.9393939,47.0909091 22.6060606,47.7575758 C23.2727273,47.0909091 23.9393939,46.4242424 24.6060606,45.7575758 C23.9393939,45.0909091 23.2727273,44.4242424 22.6060606,43.7575758 C21.9393939,44.3636364 21.2727273,45.0909091 20.6060606,45.7575758 Z" id="Path"></path>
                        <path d="M18,5.45454545 L18,4.72727273 L19.8181818,4.72727273 C19.8181818,9.81818182 19.8181818,16.8484848 19.8181818,21.9393939 C20,21.9393939 20.1212121,21.9393939 20.3030303,21.9393939 C21.5757576,21.9393939 22.7878788,21.9393939 24.0606061,21.9393939 C24.4848485,21.9393939 24.6666667,21.8787879 24.6060606,21.7575758 C24.6060606,21.7575758 24.6060606,21.6969697 24.6060606,21.6969697 C24.6060606,16.7272727 24.6060606,9.75757576 24.6060606,4.72727273 C24.6060606,4.72727273 24.6060606,4.72727273 24.6060606,4.66666667 L24.6060606,4.66666667 C24.3636364,2.06060606 22.3030303,0.242424242 19.5757576,0.242424242 C17.7575758,0.242424242 15.9393939,0.242424242 14.1212121,0.242424242 C13.2727273,0.242424242 13.2727273,0.242424242 13.2727273,1.09090909 C13.2727273,14.5454545 13.2727273,21.5757576 13.2727273,35.030303 C13.2727273,36.3030303 12.7878788,36.6666667 11.4545455,36.3636364 C11.4545455,36.1212121 11.4545455,35.8787879 11.4545455,35.6363636 C11.4545455,21.9393939 11.4545455,14.9090909 11.4545455,1.21212121 C11.4545455,1.15151515 11.4545455,1.15151515 11.4545455,1.09090909 C11.4545455,1.03030303 11.4545455,0.96969697 11.4545455,0.909090909 C11.4545455,0.848484848 11.4545455,0.787878788 11.4545455,0.727272727 C11.4545455,0.545454545 11.4545455,0.424242424 11.3333333,0.363636364 C11.2121212,0.242424242 11.030303,0.242424242 10.6060606,0.242424242 C8.78787879,0.242424242 6.96969697,0.242424242 5.15151515,0.242424242 C2.42424242,0.242424242 0.424242424,2.06060606 0.121212121,4.66666667 L6.66666667,4.66666667 L6.66666667,4.66666667 C6.66666667,17.9393939 6.66666667,26.7878788 6.66666667,41.1515152 C8.72727273,41.1515152 10.7878788,41.1515152 12.8484848,41.1515152 C13.0909091,41.1515152 13.3939394,41.1515152 13.6363636,41.0909091 C16.0606061,40.7878788 17.9393939,38.7272727 17.9393939,36.3030303 C17.9393939,35.6969697 17.9393939,35.030303 17.9393939,34.4242424 C17.9393939,23.3939394 17.9393939,18.7878788 17.9393939,7.75757576 C17.9393939,7.09090909 17.9393939,6.42424242 17.9393939,5.75757576 C17.9393939,5.75757576 17.9393939,5.75757576 17.9393939,5.75757576 L17.9393939,5.45454545 L18,5.45454545 Z" id="Path"></path>
                        <path d="M24.6060606,36.6060606 L24.6060606,36.6060606 C24.6060606,31.5757576 24.6060606,28.7272727 24.6060606,23.7575758 C24.6060606,23.3939394 24.6060606,23.3939394 23.7575758,23.3939394 C22.6666667,23.3939394 21.5151515,23.3939394 20.4242424,23.3939394 C20.2424242,23.3939394 20.0606061,23.3939394 19.8181818,23.3939394 C19.8181818,28.5454545 19.8181818,31.4545455 19.8181818,36.6060606 L19.8181818,36.6060606 C19.8181818,37.8787879 19.8181818,38.9090909 19.8181818,40.1818182 C19.8181818,40.1818182 19.8181818,40.2424242 19.8181818,40.2424242 C19.8181818,40.4848485 19.8181818,40.7272727 19.8181818,41.030303 C20,41.030303 20.1212121,41.030303 20.3030303,41.030303 C20.3030303,41.030303 20.3636364,41.030303 20.3636364,41.030303 C20.4242424,41.030303 20.5454545,41.030303 20.6666667,41.030303 C21.6969697,41.030303 22.7272727,41.030303 23.8181818,41.030303 C23.8787879,41.030303 23.9393939,41.030303 24.0606061,41.030303 C24.1212121,41.030303 24.1212121,41.030303 24.1818182,41.030303 C24.8484848,41.030303 25.5151515,41.030303 26.1818182,41.030303 C28.9090909,41.030303 30.9090909,39.2121212 31.2121212,36.6060606 L24.6060606,36.6060606 Z" id="Path"></path>
                        <path d="M8.66666667,47.7575758 C9.33333333,47.0909091 10,46.4242424 10.6666667,45.7575758 C10,45.0909091 9.33333333,44.4242424 8.66666667,43.7575758 C8,44.4242424 7.33333333,45.0909091 6.66666667,45.7575758 C7.27272727,46.4242424 7.93939394,47.0909091 8.66666667,47.7575758 Z" id="Path"></path>
                        <path d="M12.7272727,47.7575758 C13.3939394,47.0909091 14.0606061,46.4242424 14.7272727,45.7575758 C14.0606061,45.0909091 13.3939394,44.4242424 12.7272727,43.7575758 C12.0606061,44.4242424 11.3939394,45.0909091 10.7272727,45.7575758 C11.3333333,46.4242424 12,47.0909091 12.7272727,47.7575758 Z" id="Path"></path>
                        <g transform="translate(6.666667, 52.727273)">
                            <path d="M2.78787879,6.96969697 L0,6.96969697 L0,0.0606060606 L2.42424242,0.0606060606 C2.72727273,0.0606060606 2.96969697,0.121212121 3.21212121,0.303030303 C3.45454545,0.484848485 3.63636364,0.666666667 3.75757576,0.96969697 C3.87878788,1.27272727 3.93939394,1.51515152 3.93939394,1.81818182 L3.93939394,2.36363636 C3.93939394,2.72727273 3.81818182,3.09090909 3.63636364,3.33333333 C3.87878788,3.45454545 4.06060606,3.63636364 4.12121212,3.87878788 C4.24242424,4.12121212 4.24242424,4.36363636 4.24242424,4.60606061 L4.24242424,5.15151515 C4.24242424,5.51515152 4.18181818,5.81818182 4.06060606,6.06060606 C3.93939394,6.36363636 3.75757576,6.54545455 3.51515152,6.72727273 C3.33333333,6.90909091 3.09090909,6.96969697 2.78787879,6.96969697 Z M2.42424242,2.72727273 C2.48484848,2.72727273 2.54545455,2.66666667 2.60606061,2.60606061 C2.66666667,2.54545455 2.66666667,2.42424242 2.66666667,2.3030303 L2.66666667,1.81818182 C2.66666667,1.6969697 2.66666667,1.57575758 2.60606061,1.51515152 C2.54545455,1.45454545 2.48484848,1.39393939 2.42424242,1.39393939 L1.27272727,1.39393939 L1.27272727,2.72727273 L2.42424242,2.72727273 Z M2.72727273,5.63636364 C2.78787879,5.63636364 2.78787879,5.57575758 2.84848485,5.51515152 C2.90909091,5.39393939 2.90909091,5.33333333 2.90909091,5.15151515 L2.90909091,4.60606061 C2.90909091,4.42424242 2.90909091,4.3030303 2.84848485,4.24242424 C2.78787879,4.18181818 2.72727273,4.12121212 2.72727273,4.12121212 L1.27272727,4.12121212 L1.27272727,5.6969697 L2.72727273,5.6969697 L2.72727273,5.63636364 Z" id="Shape"></path>
                            <path d="M9.21212121,6.96969697 L7.87878788,6.96969697 L7.63636364,5.6969697 L6.12121212,5.6969697 L5.87878788,6.96969697 L4.54545455,6.96969697 L6,0.0606060606 L7.75757576,0.0606060606 L9.21212121,6.96969697 Z M7.33333333,4.42424242 L6.84848485,2.24242424 L6.36363636,4.42424242 L7.33333333,4.42424242 Z" id="Shape"></path>
                            <polygon id="Path" points="11.4545455 6.96969697 10.1212121 6.96969697 10.1212121 3.63636364 8.48484848 0.0606060606 9.93939394 0.0606060606 10.7878788 2.12121212 11.6363636 0.0606060606 13.0909091 0.0606060606 11.4545455 3.63636364 11.4545455 6.96969697"></polygon>
                            <polygon id="Path" points="17.9393939 6.96969697 16.6666667 6.96969697 14.7878788 3.27272727 14.7878788 6.96969697 13.4545455 6.96969697 13.4545455 0.0606060606 14.7272727 0.0606060606 16.6060606 3.81818182 16.6060606 0.121212121 17.9393939 0.121212121"></polygon>
                        </g>
                    </g>
                </g>
            </g>
        </g>
    </g>
</svg>