<?xml version="1.0" encoding="UTF-8"?>
<svg width="16px" height="14px" viewBox="0 0 16 14" version="1.1" xmlns="http://www.w3.org/2000/svg" xmlns:xlink="http://www.w3.org/1999/xlink">
    <title>05E77D60-8205-49E5-9DF7-70903235784F</title>
    <g id="Design" stroke="none" stroke-width="1" fill="none" fill-rule="evenodd">
        <g id="Discover" transform="translate(-1210.000000, -760.000000)" fill="#FF5200" fill-rule="nonzero">
            <g id="Group" transform="translate(1210.000000, 757.000000)">
                <g id="refresh" transform="translate(0.000000, 3.000000)">
                    <path d="M9.02703883,0 C5.24082888,0 2.16189722,3.1412376 2.16189722,7 L2.16189722,7.02314596 L0.802495364,4.93670288 C0.669475134,4.7316958 0.396945883,4.67548418 0.195793341,4.81105338 C-0.00535920167,4.94662258 -0.060513931,5.22437411 0.0725062986,5.4293812 L2.04509897,8.45488899 C2.11647568,8.56400567 2.23002954,8.63344355 2.35656097,8.64997638 C2.37602735,8.65328295 2.39224933,8.65328295 2.4117157,8.65328295 C2.51878077,8.65328295 2.62260143,8.61360416 2.70371133,8.53755314 L5.44522582,6.0212565 C5.62366759,5.8559282 5.63988957,5.5748701 5.47766978,5.38970241 C5.31544998,5.20784128 5.03967634,5.19130846 4.85799017,5.35663675 L3.0378841,7.03306566 L3.0378841,7 C3.0378841,3.63060935 5.72424386,0.892772792 9.02703883,0.892772792 C12.3298338,0.892772792 15.019438,3.63060935 15.019438,7 C15.019438,10.3693906 12.3330782,13.1072272 9.03028323,13.1072272 C7.43079608,13.1072272 5.9253964,12.4723666 4.79634665,11.3183751 C4.62439367,11.1431271 4.34862002,11.1431271 4.17666704,11.3183751 C4.00471406,11.4936231 4.00471406,11.7746812 4.17666704,11.9499291 C5.47442538,13.2725555 7.19719958,14 9.03028323,14 C12.8132488,14 15.8954248,10.862069 15.8954248,7 C15.8954248,3.13793103 12.8132488,0 9.02703883,0 Z" id="Path"></path>
                </g>
            </g>
        </g>
    </g>
</svg>